<?xml version="1.0" encoding="UTF-8" standalone="no"?>
<!-- Created with Inkscape (http://www.inkscape.org/) -->

<svg
   width="297mm"
   height="210mm"
   viewBox="0 0 297 210"
   version="1.1"
   id="svg5"
   sodipodi:docname="donut.svg"
   inkscape:version="1.3.2 (091e20e, 2023-11-25, custom)"
   xmlns:inkscape="http://www.inkscape.org/namespaces/inkscape"
   xmlns:sodipodi="http://sodipodi.sourceforge.net/DTD/sodipodi-0.dtd"
   xmlns:xlink="http://www.w3.org/1999/xlink"
   xmlns="http://www.w3.org/2000/svg"
   xmlns:svg="http://www.w3.org/2000/svg">
  <sodipodi:namedview
     id="namedview7"
     pagecolor="#ffffff"
     bordercolor="#000000"
     borderopacity="0.25"
     inkscape:showpageshadow="2"
     inkscape:pageopacity="0.0"
     inkscape:pagecheckerboard="0"
     inkscape:deskcolor="#d1d1d1"
     inkscape:document-units="mm"
     showgrid="false"
     inkscape:zoom="0.684102"
     inkscape:cx="558.39626"
     inkscape:cy="389.56179"
     inkscape:window-width="1920"
     inkscape:window-height="991"
     inkscape:window-x="-9"
     inkscape:window-y="-9"
     inkscape:window-maximized="1"
     inkscape:current-layer="layer1" />
  <defs
     id="defs2">
    <linearGradient
       inkscape:collect="always"
       id="linearGradient1519">
      <stop
         style="stop-color:#000000;stop-opacity:1;"
         offset="0"
         id="stop1515" />
      <stop
         style="stop-color:#000000;stop-opacity:0;"
         offset="1"
         id="stop1517" />
    </linearGradient>
    <filter
       inkscape:collect="always"
       style="color-interpolation-filters:sRGB"
       id="filter1488"
       x="-0.0081513107"
       y="-0.0088394165"
       width="1.0163026"
       height="1.0176788">
      <feGaussianBlur
         inkscape:collect="always"
         stdDeviation="0.21936794"
         id="feGaussianBlur1490" />
    </filter>
    <linearGradient
       inkscape:collect="always"
       xlink:href="#linearGradient1519"
       id="linearGradient1523"
       x1="113.1791"
       y1="112.93405"
       x2="178.82501"
       y2="112.93405"
       gradientUnits="userSpaceOnUse"
       gradientTransform="translate(-6.9616811,-0.77352013)" />
  </defs>
  <g
     inkscape:label="Layer 1"
     inkscape:groupmode="layer"
     id="layer1">
    <path
       id="path163"
       style="fill:#c87137;fill-rule:evenodd;stroke:#000000;stroke-width:0;stroke-dasharray:none;paint-order:markers stroke fill"
       d="m 137.93215,57.326733 a 58.714664,54.266933 0 0 0 -4.37286,0.240813 58.714664,54.266933 0 0 0 -52.786443,59.054274 l 0.08837,0.81081 a 58.714664,54.266933 0 0 0 64.485466,48.11954 58.714664,54.266933 0 0 0 52.30482,-59.41911 58.714664,54.266933 0 0 0 -59.71935,-48.806327 z m 1.69602,37.138819 h 5.2e-4 c 0.0849,-3.6e-5 0.1786,0.01074 0.28008,0.03566 0.21568,0.05294 0.43522,0.08614 0.65578,0.110071 0.2492,0.02422 0.49964,0.03246 0.74982,0.03876 0.27545,0.0061 0.5508,0.0067 0.82631,0.0078 0.18171,0.0022 0.36342,0.0052 0.54518,0.0067 0.0308,-0.0027 0.0625,-0.0046 0.0956,-0.0052 0.0809,-0.0015 0.16134,-0.0026 0.24184,-0.0026 0.2415,-4.9e-5 0.48176,0.0098 0.72192,0.04651 0.35764,0.06975 0.71091,0.161443 1.05265,0.287838 0.36954,0.152581 0.73771,0.309381 1.10329,0.471289 0.0165,0.0068 0.0326,0.01479 0.0491,0.0217 0.0831,-0.04725 0.19015,-0.07471 0.31936,-0.07183 0.0927,0.0021 0.19663,0.01986 0.31058,0.05633 0.32952,0.105448 0.65226,0.229517 0.97617,0.350883 0.28202,0.110509 0.56841,0.207588 0.85524,0.304374 0.26719,0.07819 0.52896,0.170832 0.78704,0.274919 0.27416,0.107868 0.53961,0.236167 0.8077,0.358118 0.31727,0.134741 0.60503,0.324331 0.88521,0.522448 0.2948,0.192932 0.57639,0.40404 0.8661,0.604098 0.25871,0.171281 0.50065,0.361821 0.73742,0.561723 0.233,0.185305 0.44643,0.395463 0.6811,0.578259 0.23643,0.172751 0.46544,0.355108 0.68678,0.546737 0.2348,0.207075 0.4604,0.423634 0.68523,0.6413 0.21845,0.23774 0.43684,0.47748 0.63355,0.73381 0.17051,0.19609 0.31909,0.40976 0.48318,0.61082 0.23124,0.27886 0.44979,0.56861 0.66042,0.86351 0.1291,0.18392 0.25712,0.36855 0.38551,0.55294 0.0908,0.0612 0.18143,0.14898 0.26613,0.26768 0.18081,0.2534 0.30979,0.53578 0.43202,0.82062 0.0159,0.0367 0.0305,0.0739 0.045,0.11111 0.0288,0.0512 0.0588,0.10165 0.0873,0.15296 0.19429,0.33453 0.36693,0.68097 0.53485,1.02939 0.10111,0.12093 0.20068,0.24202 0.32349,0.39636 0.2104,0.26444 0.45242,0.48342 0.33073,0.89194 -0.0132,0.0444 -0.0401,0.0814 -0.0646,0.11989 0.0584,0.11864 0.11492,0.23829 0.17001,0.35863 0.11092,0.2313 0.19972,0.47092 0.28732,0.71158 0.0719,0.21144 0.13384,0.42621 0.19224,0.64183 0.039,0.14748 0.0635,0.29786 0.0806,0.44906 0.0245,0.0617 0.0513,0.12237 0.076,0.18397 0.11337,0.27975 0.16367,0.57944 0.21807,0.87488 0.0702,0.42467 0.11347,0.85283 0.16847,1.27951 0.0504,0.37114 0.0936,0.74277 0.12247,1.11621 0.0315,0.31334 0.0157,0.62775 -0.0227,0.93948 -0.0382,0.30482 -0.0874,0.60477 -0.17621,0.89917 -0.0308,0.10655 -0.0707,0.20947 -0.10852,0.31316 0.0795,0.14319 0.10297,0.3558 0.0232,0.6258 -0.085,0.28841 -0.21371,0.56093 -0.32556,0.83923 -0.089,0.23997 -0.21391,0.46439 -0.30231,0.70435 -0.0861,0.20885 -0.15372,0.4244 -0.22272,0.63923 -0.0795,0.23582 -0.15248,0.47375 -0.22738,0.71107 -0.0584,0.23265 -0.15926,0.44864 -0.26717,0.66146 -0.10167,0.1961 -0.21388,0.38639 -0.33744,0.56947 -0.14598,0.19313 -0.28863,0.38874 -0.44132,0.57671 -0.20652,0.20727 -0.39238,0.43266 -0.58601,0.65164 -0.006,0.007 -0.0127,0.0138 -0.0191,0.0207 -0.0522,0.12183 -0.10338,0.24422 -0.154,0.36691 -0.10427,0.25374 -0.22842,0.49743 -0.36173,0.7369 -0.14891,0.27662 -0.31061,0.54643 -0.48421,0.80822 -0.14702,0.24028 -0.31301,0.46795 -0.48679,0.68937 -0.19556,0.23958 -0.41135,0.46062 -0.63976,0.66869 -0.17097,0.17329 -0.34659,0.34218 -0.51624,0.51676 -0.19158,0.18432 -0.38758,0.36606 -0.58705,0.54209 -0.20882,0.16958 -0.41121,0.34665 -0.6289,0.50488 -0.20858,0.16185 -0.42891,0.30799 -0.65061,0.45113 -0.2325,0.15479 -0.47388,0.29341 -0.71933,0.42633 -0.26865,0.14372 -0.53322,0.29515 -0.80977,0.42375 -0.29132,0.12292 -0.58787,0.23303 -0.88108,0.3514 -0.27035,0.11068 -0.54583,0.20759 -0.82114,0.30489 -0.22771,0.0835 -0.44872,0.1823 -0.67025,0.2806 -0.24054,0.0976 -0.47419,0.21108 -0.7152,0.30748 -0.18177,0.0912 -0.37369,0.15762 -0.56482,0.22582 -0.0622,0.0165 -0.12852,0.0384 -0.19637,0.0589 -0.27431,0.12684 -0.55185,0.24623 -0.83148,0.36121 -0.4375,0.19072 -0.8888,0.34544 -1.35082,0.46406 -0.29417,0.0705 -0.58695,0.14155 -0.88677,0.18345 -0.28221,0.0347 -0.56655,0.0489 -0.85059,0.0589 -0.2914,0.008 -0.58287,0.0104 -0.87436,0.0114 -0.3499,0.001 -0.69965,0.001 -1.04955,0.002 -0.27483,1.8e-4 -0.54993,4.7e-4 -0.82476,5.1e-4 -0.11338,-4e-5 -0.22638,6.2e-4 -0.33951,5.2e-4 0.0155,0.0535 -0.0349,0.10759 -0.20464,0.1633 -0.0926,0.0304 -0.18292,0.0698 -0.27802,0.0915 -0.14788,0.0337 -0.31442,-0.0406 -0.4625,-0.0346 -0.0788,-0.009 -0.15744,-0.0148 -0.23617,-0.0212 -0.0842,-0.001 -0.1683,-0.005 -0.25218,-0.014 -0.0736,-0.003 -0.14714,-0.007 -0.22117,-0.006 -0.28694,-0.0103 -0.57386,-0.025 -0.85886,-0.0615 -0.31024,-0.0434 -0.61438,-0.11112 -0.91778,-0.18862 -0.0356,-0.01 -0.07,-0.0237 -0.10542,-0.0341 -0.12779,0.15988 -0.39799,0.24121 -0.76894,0.11679 -0.30855,-0.1035 -0.62795,-0.16241 -0.94413,-0.23771 -0.66449,-0.15782 -1.32589,-0.33222 -1.96681,-0.57051 -0.50247,-0.18479 -1.00623,-0.37541 -1.46347,-0.65836 -0.37691,-0.22595 -0.75479,-0.45044 -1.11518,-0.7028 -0.16198,-0.0549 -0.32143,-0.1169 -0.47491,-0.19378 -0.3484,-0.17427 -0.70201,-0.34056 -1.02267,-0.56431 -0.29832,-0.20416 -0.5907,-0.41809 -0.85318,-0.66766 -0.23219,-0.21323 -0.4416,-0.44599 -0.64492,-0.68678 -0.0232,-0.028 -0.0494,-0.0528 -0.0734,-0.0801 -0.0119,-0.008 -0.0237,-0.0166 -0.0357,-0.0248 -0.057,-0.042 -0.11255,-0.0855 -0.1695,-0.12764 -0.23854,-0.12329 -0.48297,-0.23489 -0.73174,-0.33642 -0.37221,-0.15191 -0.52853,-0.39912 -0.51883,-0.60823 -0.23195,-0.1725 -0.46204,-0.34776 -0.67179,-0.54725 -0.30194,-0.32361 -0.60692,-0.64447 -0.88367,-0.99064 -0.17864,-0.22935 -0.34797,-0.46821 -0.49403,-0.71985 -0.13129,-0.14125 -0.19845,-0.28491 -0.21187,-0.41393 -0.17982,-0.19524 -0.35812,-0.39206 -0.52865,-0.59583 -0.10463,-0.12502 -0.17,-0.24707 -0.2036,-0.35967 -0.24242,-0.26861 -0.45753,-0.56027 -0.64596,-0.86971 -0.18676,-0.33375 -0.38335,-0.66915 -0.46405,-1.04748 -0.0117,-0.0549 -0.02,-0.10745 -0.0248,-0.15658 -0.0507,-0.0743 -0.10592,-0.14534 -0.15089,-0.22376 -0.21847,-0.33974 -0.41491,-0.69178 -0.52762,-1.08262 -0.11036,-0.35346 -0.21743,-0.71663 -0.20309,-1.08779 -0.0568,-0.10738 -0.10483,-0.21858 -0.12919,-0.34158 -0.0709,-0.27311 -0.12577,-0.55066 -0.19947,-0.82321 -0.0758,-0.28859 -0.17069,-0.57385 -0.19689,-0.87281 -0.0276,-0.20148 -0.0554,-0.40246 -0.0594,-0.60617 -0.0167,-0.1973 -0.0434,-0.39335 -0.0765,-0.58859 -0.0296,-0.24014 -0.0377,-0.48195 -0.0651,-0.72244 -0.0226,-0.26979 -0.0235,-0.53928 -0.0119,-0.80977 0.009,-0.27583 0.0179,-0.55244 0.0491,-0.82682 0.0288,-0.25771 0.0668,-0.51416 0.0832,-0.77308 0.0312,-0.27509 0.075,-0.5497 0.17415,-0.80977 0.0864,-0.23198 0.15556,-0.47166 0.27285,-0.69195 0.13188,-0.25351 0.25777,-0.51047 0.40256,-0.75706 0.0113,-0.0187 0.0228,-0.0371 0.0341,-0.0558 -0.005,-0.1669 0.0727,-0.36912 0.27389,-0.57154 0.0385,-0.0387 0.079,-0.0795 0.11885,-0.11937 0.0143,-0.0271 0.0293,-0.0529 0.0434,-0.0801 0.0303,-0.0504 0.0613,-0.10042 0.0925,-0.15038 0.033,-0.13927 0.0701,-0.27769 0.12041,-0.41289 0.0789,-0.21156 0.16501,-0.42068 0.25941,-0.62529 0.0604,-0.17827 0.12165,-0.35688 0.21136,-0.52297 0.0803,-0.16272 0.17593,-0.31598 0.26303,-0.4749 0.10562,-0.22683 0.24161,-0.43696 0.38706,-0.64027 0.15414,-0.19726 0.30615,-0.39686 0.46509,-0.59015 0.18902,-0.20526 0.3712,-0.41769 0.57826,-0.60513 0.0624,-0.13611 0.12979,-0.26992 0.20515,-0.40049 0.14451,-0.27167 0.30481,-0.53432 0.48886,-0.78135 0.25193,-0.30116 0.49949,-0.60897 0.81701,-0.84594 0.0802,-0.0563 0.16246,-0.11088 0.24701,-0.16175 0.0799,-0.128367 0.20384,-0.258812 0.38861,-0.372586 0.19207,-0.118191 0.39778,-0.220713 0.59996,-0.322461 0.0169,-0.01081 0.0352,-0.01993 0.0522,-0.03049 0.1006,-0.105385 0.0584,-0.06728 0.20154,-0.180351 0.24452,-0.170529 0.49055,-0.338539 0.74466,-0.494543 0.0862,-0.05111 0.17548,-0.09692 0.26355,-0.144694 0.0745,-0.115958 0.14193,-0.21835 0.25838,-0.300757 0.16337,-0.145434 0.33458,-0.283713 0.51315,-0.409794 0.20343,-0.145239 0.40949,-0.288613 0.62838,-0.409794 0.225,-0.138285 0.44786,-0.282965 0.68833,-0.393258 0.20502,-0.08636 0.40441,-0.180181 0.59945,-0.287838 0.25554,-0.13888 0.5148,-0.27176 0.76636,-0.418062 0.16807,-0.09774 0.32192,-0.140746 0.4532,-0.14366 0.0909,-0.002 0.17044,0.01551 0.2372,0.04754 0.0834,-0.03024 0.16162,-0.04492 0.23306,-0.04444 0.0455,3.05e-4 0.0878,0.0066 0.12712,0.01757 7.1e-4,-2.87e-4 0.001,-5.17e-4 0.002,-5.17e-4 0.58652,-0.225297 1.18276,-0.422875 1.78542,-0.599963 0.37313,-0.111474 0.75487,-0.183891 1.13895,-0.241329 0.0976,-0.08527 0.23803,-0.156331 0.42788,-0.197404 0.34546,-0.07474 0.69774,-0.110373 1.04955,-0.138493 0.13139,-0.0098 0.26424,-0.01046 0.39584,-0.01654 0.0526,-0.03741 0.11229,-0.07317 0.18035,-0.106454 0.23932,-0.11698 0.49443,-0.189286 0.75706,-0.227376 0.0547,-0.0079 0.1092,-0.01251 0.1633,-0.01344 0.23447,-0.004 0.46422,0.04922 0.69453,0.09612 0.0494,0.0076 0.099,0.01586 0.14831,0.02377 0.0641,-0.165233 0.25172,-0.293453 0.53692,-0.294038 z m -5.00486,4.868436 c 5.1e-4,0.0019 1e-5,0.0033 5.1e-4,0.0052 0.002,-0.0016 0.004,-0.0031 0.006,-0.0047 -0.002,-1.11e-4 -0.004,-4.09e-4 -0.006,-5.17e-4 z m 17.2899,2.536792 c -0.003,0.002 -0.005,0.003 -0.007,0.005 0.0172,0.0498 0.0349,0.10236 0.0522,0.15658 -0.0151,-0.0539 -0.0297,-0.10792 -0.045,-0.16175 z m -19.53421,1.45005 c -0.023,0.0291 -0.0373,0.0597 -0.047,0.0894 0.0313,-0.0282 0.054,-0.0598 0.047,-0.0894 z m 4.88497,1.22473 c -0.0111,0.003 -0.0219,0.006 -0.0331,0.009 8e-4,0.003 0.002,0.005 0.003,0.008 0.002,0.006 0.003,0.0117 0.004,0.0176 0.007,-0.007 0.0162,-0.0153 0.0248,-0.0243 7.9e-4,-0.003 0.002,-0.007 0.003,-0.0103 z m 2.69079,0.24959 c -0.008,0.002 -0.0158,0.003 -0.0238,0.005 -0.004,0.0403 -0.006,0.0825 -0.0109,0.12247 0.004,-0.001 0.009,-0.002 0.0134,-0.004 0.007,-0.0412 0.0138,-0.0825 0.0212,-0.12351 z m -10.70373,0.0434 v 5.2e-4 c 3.3e-4,1e-5 0.001,-2e-5 0.001,0 -3.2e-4,-2.2e-4 -0.001,-3e-4 -0.001,-5.2e-4 z m 0.001,5.2e-4 v 5.2e-4 c 3.4e-4,10e-6 0.001,-2e-5 0.001,0 -3.1e-4,-2.2e-4 -0.001,-3.1e-4 -0.001,-5.2e-4 z m 0.001,5.2e-4 v 5.1e-4 c 3.4e-4,2e-5 0.001,-2e-5 0.001,0 -3.2e-4,-2.1e-4 -0.001,-3e-4 -0.001,-5.1e-4 z m 0.001,5.1e-4 v 5.2e-4 c 3.4e-4,2e-5 0.001,-2e-5 0.001,0 -3.1e-4,-2.2e-4 -0.001,-3e-4 -0.001,-5.2e-4 z m 0.001,5.2e-4 v 5.2e-4 c 3.4e-4,1e-5 0.001,-2e-5 0.001,0 -3.1e-4,-2.3e-4 -0.001,-3e-4 -0.001,-5.2e-4 z m 0.001,5.2e-4 c 0.0139,0.01 0.0276,0.0195 0.0413,0.0289 0.006,-0.009 0.0125,-0.0157 0.0186,-0.0243 -0.0201,-9.3e-4 -0.04,-0.004 -0.0599,-0.005 z m 8.97827,0.0543 c -0.003,0.007 -0.006,0.0143 -0.009,0.0217 0.003,-2.8e-4 0.005,-5.2e-4 0.008,-5.2e-4 4.7e-4,-0.006 0.001,-0.0122 0.002,-0.0186 z m -2.2903,0.0124 c -0.0398,0.0105 -0.0657,0.0177 -0.10439,0.0279 0.0467,0.008 0.0933,0.0154 0.13953,0.0181 -0.0129,-0.0123 -0.0239,-0.0289 -0.0351,-0.046 z m -10.03763,0.1111 c -0.0496,0.0578 -0.0969,0.11763 -0.14625,0.1757 0.0466,-0.0494 0.093,-0.0989 0.13953,-0.14831 0.003,-0.009 0.004,-0.0184 0.007,-0.0274 z m 10.58746,0.0615 c -0.009,0.0186 -0.0204,0.0368 -0.0294,0.0553 0.0241,2.5e-4 0.0477,0.003 0.0713,0.006 -0.0122,-0.0212 -0.0268,-0.0421 -0.0419,-0.0615 z m 3.37344,0.9803 c -0.0193,0.006 -0.041,0.0133 -0.0589,0.0191 0.0213,0.005 0.0433,0.018 0.0651,0.0269 -0.002,-0.0156 -0.004,-0.031 -0.006,-0.046 z m 1.50534,0.0956 c -0.0396,0.0318 -0.0771,0.0663 -0.11628,0.0987 0.0376,-0.0184 0.0758,-0.0359 0.11473,-0.0517 0.001,-0.0151 0.001,-0.0325 0.002,-0.047 z m -2.53008,0.23668 c -0.007,0.002 -0.0141,0.005 -0.0207,0.007 0.0119,0.0117 0.0229,0.0223 0.0341,0.0341 6.3e-4,-3.1e-4 -0.001,-2e-4 0.002,-5.2e-4 -0.005,-0.0131 -0.01,-0.0268 -0.015,-0.0403 z m -1.5782,0.48834 c -0.046,0.014 -0.0928,0.0302 -0.13539,0.0434 0.0102,0.004 0.0199,0.01 0.0294,0.0124 0.0355,-0.0189 0.071,-0.0381 0.10594,-0.0558 z m 12.68708,2.24431 c -0.003,0.002 -0.006,0.004 -0.008,0.006 -0.0532,0.0547 -0.13865,0.27299 -0.0992,0.20619 0.0384,-0.0693 0.0728,-0.14065 0.10749,-0.21187 z m -0.46974,0.6072 v 5.1e-4 5.2e-4 0.001 h -5.1e-4 c -0.003,0.006 -0.005,0.0108 -0.008,0.0165 0.009,-9.3e-4 0.0179,-0.001 0.0269,-0.002 -7.4e-4,-5.6e-4 -0.001,-9.1e-4 -0.002,-0.002 -0.006,-0.004 -0.0105,-0.009 -0.016,-0.0145 z m -1.8495,0.2992 c -0.002,-2.1e-4 -0.003,5.2e-4 -0.005,5.2e-4 -0.0153,0.005 -0.0298,0.0124 -0.045,0.0181 0.007,0.0256 0.0134,0.051 0.0191,0.077 0.0301,-0.009 0.0539,-0.0928 0.031,-0.0956 z m 3.97495,0.76895 c -0.008,0.0329 -0.0187,0.0651 -0.0336,0.0966 -0.01,0.0204 -0.0251,0.0357 -0.0387,0.0522 0.0166,0.021 0.0315,0.0426 0.045,0.0651 0.004,-7.6e-4 0.009,-0.002 0.0129,-0.003 0.004,-0.0616 0.0115,-0.12268 0.014,-0.18449 3.2e-4,-0.009 2.7e-4,-0.0175 5.1e-4,-0.0264 z m -17.58807,2.05155 c -0.0359,0.0143 -0.10722,0.005 -0.10697,0.0434 1.4e-4,0.0229 0.004,0.0458 0.009,0.0687 0.0335,-0.0386 0.0542,-0.0617 0.0987,-0.11214 z m 1.50327,0.45734 v 5.2e-4 5.1e-4 c -1.3e-4,2.1e-4 -2.8e-4,0.001 -5.2e-4,0.002 0.0126,0.002 0.0232,0.007 0.0357,0.009 -0.0117,-0.003 -0.0234,-0.007 -0.0351,-0.0119 z m -14.32626,0.37414 c 0.002,0.0101 0.005,0.0204 0.007,0.0305 7.7e-4,-0.002 0.002,-0.004 0.003,-0.006 -0.003,-0.008 -0.006,-0.0163 -0.009,-0.0243 z m 29.33464,2.3921 c -0.007,0.0107 -0.0161,0.0331 -0.0258,0.061 l 5.1e-4,5.1e-4 c 0.009,-0.0205 0.0169,-0.041 0.0253,-0.0615 z m -19.31716,0.5116 c -0.0233,0.0218 -0.0504,0.0445 -0.0754,0.0672 0.0136,0.002 0.0272,0.004 0.0408,0.007 0.0114,-0.0239 0.0235,-0.0496 0.0351,-0.0739 z m -2.16215,0.03 c -0.0135,0.0116 -0.0285,0.0231 -0.0424,0.0341 l -5.2e-4,5.2e-4 c 1e-4,0.008 0.0135,0.0178 0.0279,0.0243 0.005,-0.0199 0.009,-0.0387 0.015,-0.0584 z m 8.91987,0.72812 c 7.9e-4,0.0109 0.002,0.0223 0.002,0.0331 0.01,-0.006 0.0181,-0.013 0.0279,-0.0186 -0.01,-0.006 -0.0209,-0.0101 -0.03,-0.0145 z m -14.77067,0.25218 c 8.6e-4,0.004 0.002,0.008 0.003,0.0119 0.0199,0.0166 0.0396,0.0329 0.0594,0.0496 -0.0207,-0.0206 -0.0415,-0.0408 -0.062,-0.0615 z m 16.70699,0.16381 c 9.4e-4,0.004 0.002,0.009 0.003,0.0124 0.002,-0.004 0.002,-0.008 0.005,-0.0124 -0.003,-3e-5 -0.005,3e-5 -0.008,0 z m -14.43271,4.02818 -5.2e-4,5.2e-4 c 3e-4,0.0149 0.001,0.029 0.001,0.0439 0.0956,0.0839 0.18928,0.16963 0.28163,0.25684 -0.094,-0.10043 -0.18867,-0.20031 -0.28215,-0.30128 z m 12.30364,2.05362 c -0.005,0.005 -0.0103,0.0105 -0.0155,0.0155 0.003,2.3e-4 0.007,5.1e-4 0.01,5.1e-4 0.002,-0.005 0.004,-0.0105 0.006,-0.016 z m -1.16737,0.89917 v 5.2e-4 c -0.0102,0.0177 -0.0247,0.0326 -0.0377,0.0486 0.0253,-0.0147 0.0498,-0.0296 0.0739,-0.046 -0.0121,-10e-4 -0.024,-0.002 -0.0362,-0.003 z m 2.19005,0.0615 c -5.2e-4,1.7e-4 -0.001,3.5e-4 -0.002,5.2e-4 5.1e-4,-2e-5 0.001,2e-5 0.002,0 z m -0.002,5.2e-4 c -0.0272,9.8e-4 -0.0551,0.002 -0.0816,0.003 -0.009,0.011 -0.0189,0.0216 -0.0284,0.0326 0.0367,-0.0118 0.0734,-0.0233 0.11007,-0.0351 z" />
    <path
       id="path950"
       style="fill:#d38d5f;fill-rule:evenodd;stroke:#000000;stroke-width:0;stroke-dasharray:none;paint-order:markers stroke fill"
       d="m 137.68049,70.401388 a 43.896538,41.769363 0 0 0 -3.26906,0.185001 43.896538,41.769363 0 0 0 -39.464771,45.454591 l 0.06615,0.62425 a 43.896538,41.769363 0 0 0 48.211015,37.03753 43.896538,41.769363 0 0 0 39.10459,-45.73519 43.896538,41.769363 0 0 0 -44.64792,-37.566182 z m 1.94561,24.064164 h 5.2e-4 5.2e-4 5.1e-4 5.2e-4 5.2e-4 c 0.0849,-3.3e-5 0.17861,0.01075 0.28008,0.03566 0.21568,0.05294 0.43522,0.08614 0.65578,0.110071 0.2492,0.02422 0.49964,0.03246 0.74982,0.03876 0.27545,0.0061 0.5508,0.0067 0.82631,0.0078 0.19646,0.0023 0.39313,0.0017 0.58963,0.0041 0.017,-9.31e-4 0.0335,-0.0023 0.0512,-0.0026 0.0809,-0.0015 0.16134,-0.0026 0.24184,-0.0026 0.2415,-4.9e-5 0.48176,0.0098 0.72192,0.04651 0.35764,0.06975 0.71091,0.161443 1.05265,0.287838 0.36954,0.152581 0.73771,0.309381 1.10329,0.471289 0.0165,0.0068 0.0326,0.01479 0.0491,0.0217 0.0831,-0.04725 0.19015,-0.07471 0.31936,-0.07183 0.0927,0.0021 0.19663,0.01986 0.31058,0.05633 0.32952,0.105448 0.65226,0.229517 0.97617,0.350883 0.28202,0.110509 0.56841,0.207588 0.85524,0.304374 0.26719,0.07819 0.52896,0.170832 0.78704,0.274919 0.27416,0.107868 0.53961,0.236167 0.8077,0.358118 0.31727,0.134741 0.60503,0.324331 0.88521,0.522448 0.2948,0.192932 0.57639,0.40404 0.8661,0.604098 0.25871,0.171281 0.50065,0.361821 0.73742,0.561723 0.233,0.185305 0.44643,0.395463 0.6811,0.578259 0.23643,0.172751 0.46544,0.355108 0.68678,0.546737 0.2348,0.207075 0.4604,0.423634 0.68523,0.6413 0.21845,0.23774 0.43684,0.47748 0.63355,0.73381 0.17051,0.19609 0.31909,0.40976 0.48318,0.61082 0.23124,0.27886 0.44979,0.56861 0.66042,0.86351 0.1291,0.18392 0.25712,0.36855 0.38551,0.55294 0.0908,0.0612 0.18143,0.14898 0.26613,0.26768 0.18081,0.2534 0.30979,0.53578 0.43202,0.82062 0.0159,0.0367 0.0305,0.0739 0.045,0.11111 0.0288,0.0512 0.0588,0.10165 0.0873,0.15296 0.19429,0.33453 0.36693,0.68097 0.53485,1.02939 0.10111,0.12093 0.20068,0.24202 0.32349,0.39636 0.2104,0.26444 0.45242,0.48342 0.33073,0.89194 -0.0136,0.0457 -0.036,0.0867 -0.0615,0.12609 0.0573,0.1166 0.11279,0.23419 0.16691,0.35243 0.11092,0.2313 0.19972,0.47092 0.28732,0.71158 0.0719,0.21144 0.13384,0.42621 0.19224,0.64183 0.039,0.14748 0.0635,0.29786 0.0806,0.44906 0.0245,0.0617 0.0513,0.12237 0.076,0.18397 0.11337,0.27975 0.16367,0.57944 0.21807,0.87488 0.0702,0.42467 0.11347,0.85283 0.16847,1.27951 0.0504,0.37114 0.0936,0.74277 0.12247,1.11621 0.0315,0.31334 0.0157,0.62775 -0.0227,0.93948 -0.0382,0.30482 -0.0874,0.60477 -0.17621,0.89917 -0.0308,0.10655 -0.0707,0.20947 -0.10852,0.31316 0.0795,0.14319 0.10297,0.3558 0.0232,0.6258 -0.085,0.28841 -0.21371,0.56093 -0.32556,0.83923 -0.089,0.23997 -0.21391,0.46439 -0.30231,0.70435 -0.0861,0.20885 -0.15372,0.4244 -0.22272,0.63923 -0.0795,0.23582 -0.15248,0.47375 -0.22738,0.71107 -0.0584,0.23265 -0.15926,0.44864 -0.26717,0.66146 -0.10167,0.1961 -0.21388,0.38639 -0.33744,0.56947 -0.14598,0.19313 -0.28863,0.38874 -0.44132,0.57671 -0.20652,0.20727 -0.39238,0.43266 -0.58601,0.65164 -0.006,0.007 -0.0127,0.0138 -0.0191,0.0207 -0.0522,0.12183 -0.10338,0.24422 -0.154,0.36691 -0.10427,0.25374 -0.22842,0.49743 -0.36173,0.7369 -0.14891,0.27662 -0.31061,0.54643 -0.48421,0.80822 -0.14702,0.24028 -0.31301,0.46795 -0.48679,0.68937 -0.19556,0.23958 -0.41135,0.46062 -0.63976,0.66869 -0.17097,0.17329 -0.34659,0.34218 -0.51624,0.51676 -0.19158,0.18432 -0.38758,0.36606 -0.58705,0.54209 -0.20882,0.16958 -0.41121,0.34665 -0.6289,0.50488 -0.20858,0.16185 -0.42891,0.30799 -0.65061,0.45113 -0.2325,0.15479 -0.47388,0.29341 -0.71933,0.42633 -0.26865,0.14372 -0.53322,0.29515 -0.80977,0.42375 -0.29132,0.12292 -0.58787,0.23303 -0.88108,0.3514 -0.27035,0.11068 -0.54583,0.20759 -0.82114,0.30489 -0.22771,0.0835 -0.44872,0.1823 -0.67025,0.2806 -0.24054,0.0976 -0.47419,0.21108 -0.7152,0.30748 -0.18177,0.0912 -0.37369,0.15762 -0.56482,0.22582 -0.0594,0.0157 -0.1225,0.0361 -0.18707,0.0558 -0.27715,0.12841 -0.55816,0.24811 -0.84078,0.36432 -0.4375,0.19072 -0.8888,0.34544 -1.35082,0.46406 -0.29417,0.0705 -0.58695,0.14155 -0.88677,0.18345 -0.28221,0.0347 -0.56655,0.0489 -0.85059,0.0589 -0.2914,0.008 -0.58287,0.0104 -0.87436,0.0114 -0.3499,0.001 -0.69965,0.001 -1.04955,0.002 -0.27483,1.8e-4 -0.54993,4.7e-4 -0.82476,5.1e-4 -0.11355,-4e-5 -0.22672,6.3e-4 -0.34003,5.2e-4 0.0155,0.0535 -0.0349,0.10759 -0.20464,0.1633 -0.0926,0.0304 -0.18292,0.0698 -0.27802,0.0915 -0.14788,0.0337 -0.31421,-0.0406 -0.4625,-0.0346 -0.0788,-0.009 -0.15743,-0.0148 -0.23616,-0.0212 -0.0842,-0.001 -0.1683,-0.005 -0.25218,-0.014 -0.0736,-0.003 -0.14715,-0.007 -0.22118,-0.006 -0.28694,-0.0103 -0.57386,-0.025 -0.85886,-0.0615 -0.31024,-0.0434 -0.61458,-0.11112 -0.91777,-0.18862 -0.0356,-0.01 -0.07,-0.0237 -0.10542,-0.0341 -0.12779,0.15988 -0.398,0.24121 -0.76895,0.11679 -0.30855,-0.1035 -0.62795,-0.16241 -0.94413,-0.23771 -0.66449,-0.15782 -1.32588,-0.33222 -1.9668,-0.57051 -0.50247,-0.18479 -1.00624,-0.37541 -1.46348,-0.65836 -0.37691,-0.22595 -0.75479,-0.45044 -1.11518,-0.7028 -0.16198,-0.0549 -0.32142,-0.1169 -0.4749,-0.19378 -0.3484,-0.17427 -0.70202,-0.34056 -1.02268,-0.56431 -0.29832,-0.20416 -0.5907,-0.41809 -0.85318,-0.66766 -0.23219,-0.21323 -0.4416,-0.44599 -0.64492,-0.68678 -0.0232,-0.028 -0.0494,-0.0528 -0.0734,-0.0801 -0.0119,-0.008 -0.0237,-0.0166 -0.0357,-0.0248 -0.057,-0.042 -0.11255,-0.0855 -0.1695,-0.12764 -0.23854,-0.12329 -0.48296,-0.23489 -0.73173,-0.33642 -0.37221,-0.15191 -0.52854,-0.39912 -0.51884,-0.60823 -0.23195,-0.1725 -0.46204,-0.34776 -0.67179,-0.54725 -0.30194,-0.32361 -0.60692,-0.64447 -0.88367,-0.99064 -0.17864,-0.22935 -0.34796,-0.46821 -0.49402,-0.71985 -0.13129,-0.14125 -0.19846,-0.28491 -0.21188,-0.41393 -0.17982,-0.19524 -0.35812,-0.39206 -0.52865,-0.59583 -0.10306,-0.12313 -0.16801,-0.24315 -0.20205,-0.3545 -0.24383,-0.26974 -0.45821,-0.56401 -0.64751,-0.87488 -0.18676,-0.33375 -0.38335,-0.66915 -0.46405,-1.04748 -0.0104,-0.0486 -0.0178,-0.095 -0.0227,-0.13901 -0.0538,-0.0782 -0.10498,-0.15857 -0.15244,-0.24133 -0.21847,-0.33974 -0.41491,-0.69178 -0.52762,-1.08262 -0.1103,-0.3533 -0.21783,-0.7168 -0.20361,-1.08779 -0.0571,-0.10756 -0.10581,-0.21834 -0.13022,-0.34158 -0.0709,-0.27311 -0.12577,-0.55066 -0.19947,-0.82321 -0.0758,-0.28859 -0.17069,-0.57385 -0.19689,-0.87281 -0.0276,-0.20148 -0.0549,-0.40246 -0.0589,-0.60617 -0.0167,-0.1973 -0.0439,-0.39335 -0.077,-0.58859 -0.0296,-0.24014 -0.0372,-0.48195 -0.0646,-0.72244 -0.0226,-0.26979 -0.024,-0.53928 -0.0124,-0.80977 0.009,-0.27583 0.0184,-0.55244 0.0496,-0.82682 0.0288,-0.25771 0.0668,-0.51416 0.0832,-0.77308 0.0312,-0.27509 0.075,-0.5497 0.17415,-0.80977 0.0864,-0.23198 0.15556,-0.47166 0.27285,-0.69195 0.13188,-0.25351 0.25622,-0.51047 0.40101,-0.75706 0.011,-0.0182 0.0231,-0.0376 0.0341,-0.0558 -0.005,-0.16709 0.0728,-0.36924 0.2744,-0.57206 0.039,-0.0392 0.0795,-0.0805 0.11989,-0.12092 0.0142,-0.0268 0.029,-0.0532 0.0429,-0.0801 0.03,-0.0498 0.0616,-0.0995 0.0925,-0.14883 0.0331,-0.13983 0.071,-0.27922 0.12144,-0.41496 0.0783,-0.21017 0.16452,-0.41698 0.25838,-0.62012 0.0608,-0.17982 0.1219,-0.3606 0.21239,-0.52813 0.0803,-0.16275 0.1749,-0.31547 0.262,-0.47439 0.10562,-0.22684 0.24264,-0.43696 0.38809,-0.64027 0.15414,-0.19726 0.30615,-0.39685 0.46509,-0.59014 0.18902,-0.20526 0.37103,-0.4177 0.57774,-0.60514 0.0624,-0.13608 0.1293,-0.26943 0.20464,-0.39997 0.14451,-0.27167 0.30481,-0.53432 0.48886,-0.78135 0.25193,-0.30134 0.5,-0.60949 0.81752,-0.84646 0.0791,-0.0556 0.15959,-0.10942 0.24288,-0.15968 0.0798,-0.129041 0.20536,-0.259671 0.39119,-0.374136 0.19207,-0.118217 0.39675,-0.220686 0.59893,-0.322461 0.0164,-0.01055 0.036,-0.01915 0.0527,-0.02946 0.1017,-0.106546 0.058,-0.068 0.20154,-0.181384 0.24451,-0.17047 0.49055,-0.338522 0.74466,-0.494543 0.0862,-0.05111 0.17548,-0.09692 0.26355,-0.144694 0.0745,-0.115958 0.14193,-0.21835 0.25838,-0.300757 0.16337,-0.145461 0.33499,-0.283696 0.51366,-0.409794 0.20343,-0.145239 0.40898,-0.288614 0.62787,-0.409795 0.225,-0.138302 0.44786,-0.282937 0.68833,-0.393257 0.20502,-0.08636 0.40441,-0.18024 0.59945,-0.287838 0.25554,-0.138883 0.51492,-0.271759 0.76636,-0.418062 0.16805,-0.09774 0.32192,-0.140753 0.4532,-0.143661 0.0907,-0.002 0.17,0.01564 0.23668,0.04754 0.0834,-0.03025 0.16213,-0.04492 0.23358,-0.04444 0.0457,3.06e-4 0.0882,0.0066 0.12764,0.01757 7.2e-4,-2.87e-4 0.001,-5.17e-4 0.002,-5.17e-4 0.58652,-0.225294 1.18292,-0.42287 1.78542,-0.599963 0.37498,-0.111884 0.75796,-0.187441 1.1436,-0.244947 0.0974,-0.08366 0.23708,-0.153292 0.42426,-0.193786 0.34546,-0.07474 0.69774,-0.110373 1.04955,-0.138493 0.13139,-0.0098 0.26321,-0.01046 0.39481,-0.01654 0.0526,-0.03741 0.11279,-0.07317 0.18086,-0.106453 0.23932,-0.11698 0.49443,-0.189803 0.75706,-0.227893 0.0547,-0.0079 0.1092,-0.012 0.1633,-0.01292 0.23435,-0.004 0.46422,0.05023 0.69453,0.09715 0.0494,0.0076 0.0985,0.01586 0.1478,0.02377 0.0641,-0.165202 0.25172,-0.293455 0.53692,-0.294039 z m -9.6113,4.065385 c -0.005,0.0037 -0.0111,0.0071 -0.0165,0.01085 0.004,-3.23e-4 0.008,-2.29e-4 0.0114,-5.17e-4 0.002,-0.0035 0.003,-0.0069 0.005,-0.01034 z m 4.60851,0.803051 c 5.1e-4,0.0019 1e-5,0.0033 5.1e-4,0.0052 0.002,-0.0016 0.004,-0.0031 0.006,-0.0047 -0.002,-1.11e-4 -0.004,-4.09e-4 -0.006,-5.17e-4 z m 17.2899,2.536792 c -0.003,0.002 -0.005,0.003 -0.007,0.005 0.0174,0.0502 0.0352,0.10334 0.0527,0.15813 -0.0152,-0.0544 -0.03,-0.10895 -0.0455,-0.1633 z m -19.53421,1.45108 c -0.023,0.0291 -0.0373,0.0592 -0.047,0.0889 0.0313,-0.0282 0.054,-0.0593 0.047,-0.0889 z m 4.88549,1.22473 c -0.0113,0.003 -0.0223,0.006 -0.0336,0.009 8e-4,0.003 0.002,0.005 0.003,0.008 0.002,0.006 0.002,0.0114 0.004,0.0171 0.007,-0.007 0.0156,-0.0151 0.0243,-0.0243 7.5e-4,-0.003 0.002,-0.007 0.003,-0.01 z m 2.69027,0.24908 c -0.008,0.002 -0.0158,0.003 -0.0238,0.005 -0.004,0.0405 -0.006,0.0828 -0.0109,0.12299 0.004,-10e-4 0.009,-0.002 0.0134,-0.004 0.007,-0.0413 0.0138,-0.0828 0.0212,-0.12402 z m -10.70373,0.0429 v 5.2e-4 c 3.3e-4,1e-5 0.001,-2e-5 0.001,0 -3.2e-4,-2.2e-4 -0.001,-3e-4 -0.001,-5.2e-4 z m 0.001,5.2e-4 v 5.2e-4 c 3.4e-4,10e-6 0.001,-2e-5 0.001,0 -3.2e-4,-2.2e-4 -0.001,-3.1e-4 -0.001,-5.2e-4 z m 0.001,5.2e-4 c 0.0148,0.01 0.0297,0.0194 0.0444,0.0294 0.006,-0.009 0.012,-0.0163 0.0181,-0.0248 -0.0208,-9.7e-4 -0.0418,-0.004 -0.0625,-0.005 z m 8.98085,0.0563 c -0.003,0.006 -0.005,0.012 -0.009,0.0191 0.002,-2.6e-4 0.005,-5.1e-4 0.007,-5.1e-4 4.6e-4,-0.006 0.001,-0.0124 0.002,-0.0186 z m -2.28978,0.0129 c -0.0398,0.0105 -0.0657,0.0172 -0.10439,0.0274 0.0467,0.008 0.0933,0.0159 0.13953,0.0186 -0.0129,-0.0123 -0.0239,-0.0289 -0.0351,-0.046 z m -10.03815,0.11007 c -10e-5,3.1e-4 1e-4,0.001 0,0.001 2.4e-4,-2.9e-4 2.7e-4,-0.001 5.2e-4,-0.001 z m 0,0.001 c -0.0493,0.0575 -0.0961,0.11738 -0.14521,0.17518 0.046,-0.0488 0.0915,-0.0979 0.13746,-0.14676 0.003,-0.01 0.005,-0.019 0.008,-0.0284 z m 10.58798,0.0625 c -0.009,0.0185 -0.0205,0.0361 -0.0294,0.0543 0.0241,2.5e-4 0.0477,0.003 0.0713,0.006 -0.01,-0.0186 -0.0269,-0.0416 -0.0419,-0.0605 z m 3.37448,0.97824 c -0.0195,0.006 -0.0417,0.0132 -0.06,0.0191 0.0212,0.005 0.0433,0.0163 0.0651,0.0253 -0.002,-0.015 -0.003,-0.0299 -0.005,-0.0444 z m 1.5043,0.0951 c -0.0396,0.0319 -0.0771,0.0663 -0.11628,0.0987 0.0376,-0.0184 0.0758,-0.0354 0.11473,-0.0512 9.8e-4,-0.0147 0.001,-0.0331 0.002,-0.0476 z m -2.52957,0.23668 c -0.007,0.002 -0.0144,0.005 -0.0212,0.007 0.0119,0.0117 0.0229,0.0218 0.0341,0.0336 6.3e-4,-3.1e-4 0.001,3.2e-4 0.002,0 -0.005,-0.0131 -0.01,-0.0269 -0.015,-0.0403 z m -1.58388,0.49196 c -0.0437,0.0134 -0.0882,0.0269 -0.12867,0.0393 0.01,0.003 0.0184,0.01 0.0279,0.0129 0.0337,-0.018 0.0675,-0.0353 0.10077,-0.0522 z m 12.69225,2.24121 c -0.003,0.002 -0.006,0.004 -0.008,0.006 -0.0532,0.0547 -0.13857,0.27299 -0.0992,0.20619 0.0384,-0.0693 0.0728,-0.14065 0.10749,-0.21187 z m -0.47025,0.61236 c -0.003,0.006 -0.005,0.0101 -0.008,0.015 0.009,-9.1e-4 0.0161,-0.001 0.0248,-0.002 -5.4e-4,-4e-4 0.001,-5.1e-4 -0.002,-5.1e-4 -0.006,-0.004 -0.0105,-0.009 -0.015,-0.0124 z m -1.84899,0.29456 c -0.002,-2.1e-4 -0.003,0.001 -0.005,0.001 -0.0152,0.005 -0.0295,0.0125 -0.0444,0.0181 0.007,0.0262 0.0133,0.0524 0.0191,0.0791 0.0302,-0.008 0.0535,-0.0953 0.0305,-0.0982 z m 3.97495,0.76843 c -0.008,0.0331 -0.0186,0.0649 -0.0336,0.0966 -0.01,0.0208 -0.0258,0.0355 -0.0398,0.0522 0.0166,0.0209 0.0315,0.0428 0.045,0.0651 0.005,-8.4e-4 0.01,-0.002 0.0145,-0.003 0.003,-0.0613 0.011,-0.12251 0.0134,-0.18397 3.5e-4,-0.01 2.1e-4,-0.0177 5.1e-4,-0.0269 z m -17.5891,2.05362 c -0.0361,0.0139 -0.10619,0.005 -0.10594,0.0434 1.4e-4,0.0229 0.004,0.0448 0.009,0.0677 0.0331,-0.0382 0.054,-0.0617 0.0977,-0.1111 z m 1.50533,0.45579 c -5.4e-4,9e-4 -0.001,0.002 -0.002,0.003 0.008,10e-4 0.0164,0.004 0.0248,0.005 -0.008,-0.002 -0.0151,-0.005 -0.0227,-0.008 z m -14.32626,0.37465 -0.001,5.2e-4 c 0.002,0.01 0.005,0.0185 0.007,0.0284 7.7e-4,-0.002 0.002,-0.004 0.003,-0.006 -0.003,-0.008 -0.007,-0.0139 -0.009,-0.0217 z m 29.33,2.39779 c -0.006,0.012 -0.014,0.0311 -0.0222,0.0548 0.007,-0.018 0.015,-0.0365 0.0222,-0.0548 z m -19.3151,0.50126 c 2e-4,-4.2e-4 0.001,3.6e-4 0.001,0 -3.6e-4,3.3e-4 -0.001,0 -0.001,0 z m 0,0.002 c -0.0239,0.0224 -0.0517,0.0451 -0.0775,0.0682 0.0139,0.002 0.0278,0.004 0.0419,0.007 0.0117,-0.0244 0.0238,-0.0491 0.0357,-0.0739 z m -2.16008,0.0248 c -0.0142,0.012 -0.0281,0.0256 -0.0424,0.0372 3.6e-4,0.008 0.0126,0.0184 0.0269,0.0248 0.005,-0.0205 0.01,-0.0418 0.0155,-0.062 z m 8.9178,0.72967 c 7.9e-4,0.0114 0.002,0.0228 0.002,0.0341 0.01,-0.006 0.0191,-0.013 0.0289,-0.0186 -0.0103,-0.006 -0.0207,-0.01 -0.031,-0.0155 z m -14.77067,0.25477 c 9.1e-4,0.004 0.002,0.009 0.003,0.0129 0.021,0.0175 0.0416,0.0356 0.0625,0.0532 -0.0219,-0.022 -0.0438,-0.0443 -0.0656,-0.0661 z m 16.70751,0.16071 0.002,0.009 c 0.002,-0.003 0.002,-0.006 0.004,-0.009 -0.002,-2e-5 -0.004,2e-5 -0.006,0 z m -14.4322,4.03438 c 2.9e-4,0.0147 0.001,0.0292 0.001,0.0439 0.0945,0.083 0.18713,0.16799 0.27853,0.25425 -0.093,-0.0994 -0.18656,-0.19827 -0.27905,-0.29817 z m 11.13937,2.94607 v 5.2e-4 c -0.0109,0.0201 -0.0263,0.0374 -0.0408,0.0553 0.0279,-0.0162 0.0547,-0.0334 0.0811,-0.0517 -0.0135,-0.002 -0.0268,-0.002 -0.0403,-0.004 z m 2.18385,0.0625 c -0.025,0.001 -0.05,0.002 -0.0749,0.003 -0.008,0.01 -0.0165,0.0193 -0.0248,0.0289 0.0332,-0.0107 0.0666,-0.0208 0.0997,-0.0315 z" />
    <path
       id="path1006"
       style="opacity:1;fill:#c87137;fill-rule:evenodd;stroke:url(#linearGradient1523);stroke-width:0;stroke-dasharray:none;paint-order:markers stroke fill;filter:url(#filter1488)"
       d="m 138.32437,82.387219 a 32.294189,29.780252 0 0 0 -2.40502,0.132292 32.294189,29.780252 0 0 0 -29.03388,32.407329 l 0.0491,0.44545 a 32.294189,29.780252 0 0 0 35.4676,26.40665 32.294189,29.780252 0 0 0 28.7693,-32.60783 32.294189,29.780252 0 0 0 -32.84709,-26.783891 z m 1.30018,12.078333 h 5.2e-4 0.002 5.1e-4 5.2e-4 5.2e-4 5.1e-4 5.2e-4 c 0.0849,-3.3e-5 0.17862,0.01075 0.28009,0.03566 0.21568,0.05294 0.43521,0.08614 0.65577,0.110071 0.2492,0.02422 0.49965,0.03246 0.74983,0.03876 0.27515,0.0061 0.55079,0.0067 0.8263,0.0078 0.19629,0.0023 0.39279,0.0017 0.58911,0.0041 0.0168,-9.16e-4 0.0332,-0.0023 0.0507,-0.0026 0.0809,-0.0015 0.16134,-0.0026 0.24184,-0.0026 0.2415,-4.9e-5 0.48176,0.0098 0.72192,0.04651 0.35764,0.06975 0.71091,0.161443 1.05265,0.287838 0.36954,0.152581 0.73771,0.309381 1.10329,0.471289 0.0167,0.0069 0.0329,0.01472 0.0496,0.0217 0.083,-0.04711 0.18984,-0.0747 0.31884,-0.07183 0.0927,0.0021 0.19663,0.01986 0.31058,0.05633 0.32952,0.105448 0.65226,0.229517 0.97617,0.350883 0.28202,0.110509 0.56841,0.207588 0.85524,0.304374 0.26719,0.07819 0.52896,0.170832 0.78704,0.274919 0.27416,0.107868 0.53961,0.236167 0.8077,0.358118 0.31727,0.134741 0.60503,0.324331 0.88521,0.522448 0.2948,0.192932 0.57639,0.40404 0.8661,0.604098 0.25871,0.171281 0.50065,0.361821 0.73742,0.561723 0.233,0.185305 0.44643,0.395463 0.6811,0.578259 0.23643,0.172751 0.46544,0.355108 0.68678,0.546737 0.2348,0.207075 0.4604,0.423634 0.68523,0.6413 0.21845,0.23774 0.43684,0.47748 0.63355,0.73381 0.17051,0.19609 0.31909,0.40976 0.48318,0.61082 0.23124,0.27886 0.44979,0.56861 0.66042,0.86351 0.1291,0.18392 0.25712,0.36855 0.38551,0.55294 0.0908,0.0612 0.18143,0.14898 0.26613,0.26768 0.18081,0.2534 0.30979,0.53578 0.43202,0.82062 0.016,0.0369 0.0309,0.0742 0.0455,0.11162 0.0286,0.051 0.0584,0.10137 0.0868,0.15245 0.19429,0.33453 0.36693,0.68097 0.53485,1.02939 0.10111,0.12093 0.20068,0.24202 0.32349,0.39636 0.2104,0.26444 0.45242,0.48342 0.33073,0.89194 -0.0135,0.0453 -0.036,0.086 -0.0615,0.12505 0.0574,0.11688 0.11266,0.23495 0.16691,0.35347 0.11092,0.2313 0.19972,0.47092 0.28732,0.71158 0.0719,0.21144 0.13384,0.42621 0.19224,0.64183 0.0382,0.14444 0.062,0.29171 0.0791,0.43976 0.0257,0.0645 0.0517,0.12887 0.0775,0.19327 0.11337,0.27975 0.16367,0.57944 0.21807,0.87488 0.0702,0.42467 0.11347,0.85283 0.16847,1.27951 0.0504,0.37114 0.0936,0.74277 0.12247,1.11621 0.0315,0.31334 0.0157,0.62775 -0.0227,0.93948 -0.0382,0.30482 -0.0874,0.60477 -0.17621,0.89917 -0.0311,0.10779 -0.0676,0.21346 -0.10594,0.31833 0.0772,0.14313 0.0993,0.35382 0.0207,0.62063 -0.085,0.28841 -0.21371,0.56093 -0.32556,0.83923 -0.089,0.23997 -0.21391,0.46439 -0.30231,0.70435 -0.0861,0.20885 -0.15372,0.4244 -0.22272,0.63923 -0.0795,0.23582 -0.15248,0.47375 -0.22738,0.71107 -0.0584,0.23265 -0.15926,0.44864 -0.26717,0.66146 -0.10167,0.1961 -0.21388,0.38639 -0.33744,0.56947 -0.14598,0.19313 -0.28863,0.38874 -0.44132,0.57671 -0.20652,0.20727 -0.39238,0.43266 -0.58601,0.65164 -0.006,0.007 -0.0127,0.0138 -0.0191,0.0207 -0.0522,0.12183 -0.10338,0.24422 -0.154,0.36691 -0.10427,0.25374 -0.22842,0.49743 -0.36173,0.7369 -0.14891,0.27662 -0.31061,0.54643 -0.48421,0.80822 -0.14702,0.24028 -0.31301,0.46795 -0.48679,0.68937 -0.19556,0.23958 -0.41135,0.46062 -0.63976,0.66869 -0.17097,0.17329 -0.34659,0.34218 -0.51624,0.51676 -0.19158,0.18432 -0.38758,0.36606 -0.58705,0.54209 -0.20882,0.16958 -0.41121,0.34665 -0.6289,0.50488 -0.20858,0.16185 -0.42891,0.30799 -0.65061,0.45113 -0.2325,0.15479 -0.47388,0.29341 -0.71933,0.42633 -0.26865,0.14372 -0.53322,0.29515 -0.80977,0.42375 -0.29132,0.12292 -0.58787,0.23303 -0.88108,0.3514 -0.27035,0.11068 -0.54583,0.20759 -0.82114,0.30489 -0.22771,0.0835 -0.44872,0.1823 -0.67025,0.2806 -0.24054,0.0976 -0.47419,0.21108 -0.7152,0.30748 -0.18177,0.0912 -0.37369,0.15762 -0.56482,0.22582 -0.0594,0.0157 -0.1225,0.0361 -0.18707,0.0558 -0.27715,0.12841 -0.55816,0.24811 -0.84078,0.36432 -0.4375,0.19072 -0.8888,0.34544 -1.35082,0.46406 -0.29417,0.0705 -0.58695,0.14155 -0.88677,0.18345 -0.28221,0.0347 -0.56655,0.0489 -0.85059,0.0589 -0.2914,0.008 -0.58287,0.0104 -0.87436,0.0114 -0.3499,0.001 -0.69965,0.001 -1.04955,0.002 -0.27483,1.8e-4 -0.54993,4.7e-4 -0.82476,5.1e-4 -0.1132,-4e-5 -0.22603,6.2e-4 -0.339,5.2e-4 0.0154,0.0534 -0.035,0.10763 -0.20463,0.1633 -0.0926,0.0304 -0.18292,0.0698 -0.27802,0.0915 -0.14788,0.0337 -0.31413,-0.0406 -0.46251,-0.0346 -0.0788,-0.009 -0.15743,-0.0148 -0.23616,-0.0212 -0.0845,-0.001 -0.169,-0.005 -0.25321,-0.014 -0.0733,-0.003 -0.14646,-0.007 -0.22015,-0.006 -0.28694,-0.0103 -0.57386,-0.025 -0.85886,-0.0615 -0.31024,-0.0434 -0.61437,-0.11164 -0.91777,-0.18914 -0.0356,-0.01 -0.07,-0.0232 -0.10542,-0.0336 -0.12779,0.15988 -0.398,0.24121 -0.76895,0.11679 -0.30855,-0.1035 -0.62824,-0.16293 -0.94412,-0.23823 -0.66449,-0.15782 -1.32589,-0.3317 -1.96681,-0.56999 -0.50247,-0.18479 -1.00624,-0.37593 -1.46348,-0.65888 -0.37691,-0.2261 -0.75478,-0.45043 -1.11517,-0.70279 -0.16198,-0.0549 -0.32143,-0.11691 -0.47491,-0.19379 -0.3484,-0.17427 -0.70202,-0.34004 -1.02268,-0.56379 -0.29832,-0.20416 -0.59099,-0.41809 -0.85317,-0.66766 -0.23219,-0.21323 -0.44161,-0.44599 -0.64493,-0.68678 -0.0232,-0.028 -0.0494,-0.0533 -0.0734,-0.0806 -0.0119,-0.008 -0.0237,-0.0161 -0.0357,-0.0243 -0.0597,-0.0439 -0.11923,-0.0887 -0.1788,-0.13281 -0.23586,-0.12157 -0.47763,-0.23143 -0.72347,-0.33176 -0.37251,-0.15204 -0.52883,-0.39954 -0.51884,-0.60875 -0.23184,-0.17243 -0.46162,-0.34735 -0.67127,-0.54674 -0.30194,-0.32361 -0.6064,-0.64447 -0.88315,-0.99064 -0.17864,-0.22935 -0.34849,-0.46769 -0.49455,-0.71933 -0.13091,-0.14095 -0.19782,-0.28515 -0.21135,-0.41393 -0.17997,-0.19539 -0.35798,-0.39242 -0.52865,-0.59635 -0.10306,-0.12313 -0.16853,-0.24315 -0.20257,-0.3545 -0.24383,-0.26974 -0.45769,-0.56349 -0.64699,-0.87436 -0.18676,-0.33375 -0.38387,-0.66967 -0.46457,-1.048 -0.0104,-0.0486 -0.0163,-0.095 -0.0212,-0.13901 -0.0538,-0.0782 -0.1055,-0.15805 -0.15296,-0.24081 -0.21847,-0.33974 -0.41439,-0.6923 -0.5271,-1.08314 -0.10989,-0.35198 -0.21789,-0.7136 -0.20464,-1.08314 -0.0576,-0.10848 -0.10405,-0.22183 -0.12868,-0.34623 -0.0709,-0.27311 -0.12577,-0.55066 -0.19947,-0.82321 -0.0758,-0.28859 -0.17084,-0.57385 -0.19688,-0.87281 -0.0276,-0.20148 -0.0549,-0.40246 -0.0589,-0.60617 -0.0167,-0.1973 -0.0434,-0.39335 -0.0765,-0.58859 -0.0296,-0.24014 -0.0377,-0.48195 -0.0651,-0.72244 -0.0226,-0.26979 -0.0235,-0.53928 -0.0119,-0.80977 0.009,-0.27583 0.0179,-0.55192 0.0491,-0.8263 0.0288,-0.25771 0.0668,-0.51468 0.0832,-0.7736 0.0312,-0.27509 0.075,-0.54918 0.17415,-0.80925 0.0864,-0.23198 0.15556,-0.47218 0.27285,-0.69247 0.13188,-0.25351 0.25777,-0.51047 0.40256,-0.75706 0.0108,-0.0178 0.0198,-0.0349 0.0305,-0.0527 -0.006,-0.16726 0.0722,-0.37026 0.2744,-0.5736 0.0393,-0.0395 0.0806,-0.0812 0.12144,-0.12196 0.014,-0.0264 0.0296,-0.0535 0.0434,-0.0801 0.0299,-0.0497 0.0612,-0.0991 0.092,-0.14831 0.0331,-0.14004 0.0709,-0.27903 0.12144,-0.41496 0.0784,-0.21053 0.1644,-0.4182 0.25838,-0.62167 0.0608,-0.17947 0.1226,-0.35937 0.21291,-0.52658 0.0803,-0.16275 0.17593,-0.31599 0.26303,-0.47491 0.10562,-0.22684 0.24109,-0.43696 0.38654,-0.64027 0.15414,-0.19726 0.30615,-0.39634 0.46509,-0.58963 0.18869,-0.2049 0.37112,-0.4174 0.57774,-0.60461 0.0625,-0.13645 0.1291,-0.27013 0.20464,-0.40101 0.14451,-0.27167 0.30481,-0.53432 0.48886,-0.78135 0.25193,-0.30134 0.5,-0.60897 0.81752,-0.84594 0.0791,-0.0556 0.15959,-0.10942 0.24288,-0.15968 0.0798,-0.128969 0.20547,-0.259782 0.39119,-0.374139 0.19207,-0.118218 0.39675,-0.220688 0.59893,-0.322461 0.0169,-0.01081 0.0357,-0.02045 0.0527,-0.03101 0.1006,-0.105413 0.0584,-0.06728 0.20154,-0.180351 0.24449,-0.17047 0.49003,-0.338522 0.74414,-0.494543 0.0862,-0.05111 0.17548,-0.09692 0.26355,-0.144694 0.0745,-0.115958 0.14193,-0.21835 0.25838,-0.300757 0.16337,-0.145462 0.33448,-0.283696 0.51315,-0.409794 0.20343,-0.145239 0.41001,-0.288614 0.6289,-0.409795 0.225,-0.138302 0.44786,-0.282936 0.68833,-0.393257 0.20502,-0.08636 0.40389,-0.18024 0.59893,-0.287838 0.25554,-0.138883 0.5153,-0.271759 0.76636,-0.418062 0.16806,-0.09774 0.32141,-0.140221 0.45269,-0.143144 0.0911,-0.002 0.17138,0.01487 0.23823,0.04703 0.0831,-0.03008 0.16128,-0.04492 0.23254,-0.04444 0.0455,3.05e-4 0.0883,0.0066 0.12764,0.01757 7.1e-4,-2.87e-4 1.9e-4,-2.64e-4 0.002,-5.17e-4 0.58652,-0.225293 1.18288,-0.422845 1.78542,-0.599963 0.37476,-0.111915 0.75796,-0.187441 1.1436,-0.244947 0.0974,-0.08366 0.23708,-0.153292 0.42426,-0.193786 0.34546,-0.07474 0.69774,-0.110373 1.04955,-0.138493 0.13414,-0.01005 0.26872,-0.0166 0.40308,-0.02274 0.0506,-0.03531 0.10805,-0.06919 0.17259,-0.100769 0.23932,-0.11698 0.49443,-0.189286 0.75706,-0.227376 0.0547,-0.0079 0.1092,-0.012 0.1633,-0.01292 0.23401,-0.004 0.46422,0.05023 0.69453,0.09715 0.0494,0.0076 0.0985,0.01534 0.1478,0.02325 0.0641,-0.16501 0.25127,-0.293147 0.53588,-0.294039 z m -9.60975,4.065385 c -0.005,0.0037 -0.0111,0.0071 -0.0165,0.01085 0.004,-3.23e-4 0.008,-2.29e-4 0.0114,-5.17e-4 0.002,-0.0035 0.003,-0.0069 0.005,-0.01034 z m 4.60851,0.803051 c 4.9e-4,0.0018 0.001,0.0034 0.001,0.0052 0.002,-0.0015 0.003,-0.0032 0.005,-0.0047 -0.002,-1.11e-4 -0.004,-4.09e-4 -0.006,-5.17e-4 z m 17.29403,2.533692 c -0.004,0.003 -0.007,0.006 -0.0114,0.008 0.0228,0.0657 0.0444,0.14115 0.0667,0.21394 0.002,-2.4e-4 0.003,-3.3e-4 0.005,-5.2e-4 -0.0199,-0.0736 -0.0396,-0.14729 -0.0605,-0.22066 z m -19.53834,1.4547 c -0.023,0.0291 -0.0373,0.0592 -0.047,0.0889 0.0313,-0.0282 0.054,-0.0593 0.047,-0.0889 z m 4.88601,1.22421 -5.2e-4,5.2e-4 c -0.0113,0.003 -0.0223,0.006 -0.0336,0.009 8e-4,0.003 0.002,0.005 0.003,0.008 0.002,0.006 0.002,0.011 0.004,0.0165 0.007,-0.007 0.0154,-0.0154 0.0243,-0.0248 6.5e-4,-0.003 0.002,-0.006 0.003,-0.009 z m 2.68975,0.24908 c -0.008,0.002 -0.0158,0.003 -0.0238,0.005 -0.004,0.0406 -0.006,0.0832 -0.0109,0.1235 0.004,-0.001 0.009,-0.002 0.0134,-0.004 0.007,-0.0415 0.0138,-0.0832 0.0212,-0.12454 z m -10.7089,0.0403 v 5.1e-4 c 3.4e-4,2e-5 0.001,-1e-5 0.001,0 -3.2e-4,-2.1e-4 -0.001,-2.9e-4 -0.001,-5.1e-4 z m 0.001,5.1e-4 c 0.0166,0.0114 0.0334,0.0218 0.0501,0.0331 0.007,-0.01 0.0134,-0.019 0.0202,-0.0284 -0.0233,-9.9e-4 -0.0472,-0.004 -0.0703,-0.005 z m 8.98705,0.0589 c -0.003,0.007 -0.006,0.0127 -0.009,0.0202 0.003,-2.8e-4 0.005,-0.001 0.008,-0.001 4.7e-4,-0.006 0.001,-0.0127 0.002,-0.0191 z m -2.28978,0.0134 c -0.0398,0.0105 -0.0657,0.0172 -0.10439,0.0274 0.0467,0.008 0.0933,0.0164 0.13953,0.0191 -0.0129,-0.0123 -0.0239,-0.0294 -0.0351,-0.0465 z m -10.03815,0.11007 c -10e-5,3.1e-4 1e-4,0.001 0,0.001 2.4e-4,-2.8e-4 2.7e-4,-0.001 5.2e-4,-0.001 z m 0,0.001 c -0.0573,0.0667 -0.1136,0.13438 -0.17053,0.20153 0.0543,-0.0576 0.10852,-0.11543 0.16278,-0.17311 0.003,-0.01 0.005,-0.019 0.008,-0.0284 z m 10.58798,0.0599 c -0.009,0.0191 -0.0197,0.0375 -0.0294,0.0563 0.0241,2.5e-4 0.0477,0.003 0.0713,0.006 -0.0122,-0.0212 -0.0268,-0.0428 -0.0419,-0.062 z m 3.37448,0.98134 c -0.0195,0.006 -0.0417,0.0132 -0.06,0.0191 0.0212,0.005 0.0434,0.017 0.0651,0.0258 -0.002,-0.0152 -0.003,-0.0296 -0.005,-0.045 z m 1.5043,0.0951 c -0.0391,0.0315 -0.0761,0.0661 -0.11473,0.0982 0.0361,-0.0176 0.0728,-0.0345 0.11008,-0.0496 0.002,-0.0161 0.002,-0.0327 0.005,-0.0481 z m -2.52957,0.23668 c -0.007,0.002 -0.0144,0.005 -0.0212,0.007 0.0119,0.0117 0.0229,0.0223 0.0341,0.0341 6.3e-4,-3.1e-4 0.001,-1.9e-4 0.002,-5.1e-4 -0.005,-0.0131 -0.01,-0.0269 -0.015,-0.0403 z m -1.58388,0.49093 c -0.0437,0.0134 -0.0882,0.0274 -0.12867,0.0398 0.01,0.003 0.0184,0.01 0.0279,0.0129 0.0337,-0.018 0.0675,-0.0358 0.10077,-0.0527 z m 12.69328,2.2412 -0.001,5.2e-4 c -0.003,0.002 -0.006,0.004 -0.008,0.006 -0.0532,0.0547 -0.13773,0.27299 -0.0992,0.20619 0.0385,-0.0695 0.0737,-0.14096 0.10852,-0.21239 z m -0.47077,0.60978 -5.1e-4,5.2e-4 c -0.003,0.006 -0.005,0.0119 -0.008,0.0176 0.009,-9.2e-4 0.0184,-0.001 0.0274,-0.002 -7.4e-4,-5.6e-4 0.001,-0.001 -0.002,-0.002 -0.006,-0.004 -0.0105,-0.009 -0.016,-0.014 z m -1.8495,0.29766 c -0.002,-2.1e-4 -0.003,-1.2e-4 -0.005,5.2e-4 -0.0153,0.005 -0.0299,0.0123 -0.045,0.0181 0.007,0.0264 0.0137,0.0527 0.0196,0.0796 0.0302,-0.008 0.0535,-0.0953 0.0305,-0.0982 z m 3.97495,0.76688 c -0.008,0.0333 -0.0185,0.0663 -0.0336,0.0982 -0.01,0.0208 -0.0227,0.0391 -0.0367,0.0558 0.0152,0.0194 0.0288,0.0403 0.0413,0.061 0.006,-0.001 0.0117,-0.002 0.0176,-0.003 0.003,-0.0609 0.008,-0.12235 0.0109,-0.18345 3.7e-4,-0.01 1.5e-4,-0.0188 5.1e-4,-0.0284 z m -17.58807,2.05207 c -0.0359,0.0143 -0.10722,0.005 -0.10697,0.0439 1.4e-4,0.0229 0.004,0.0453 0.009,0.0682 0.0335,-0.0386 0.0537,-0.0617 0.0982,-0.11214 z m 1.5043,0.45837 c -5.5e-4,9e-4 -0.001,0.002 -0.002,0.003 0.008,0.001 0.0164,0.004 0.0248,0.005 -0.008,-0.002 -0.0151,-0.005 -0.0227,-0.008 z m -14.33556,0.35192 c 3.1e-4,8.7e-4 0.001,0.002 0.001,0.003 -1.4e-4,-8.7e-4 -3.9e-4,-0.002 -5.2e-4,-0.003 z m 0.001,0.003 c 0.003,0.0191 0.008,0.0373 0.0114,0.0563 0.002,-0.005 0.003,-0.01 0.005,-0.015 -0.005,-0.014 -0.0115,-0.0274 -0.0165,-0.0413 z m 29.34032,2.4231 c -0.007,0.008 -0.0147,0.0206 -0.0243,0.0481 l 5.1e-4,0.001 c 0.003,-0.005 0.007,-0.011 0.01,-0.0155 0.006,-0.0109 0.01,-0.0224 0.014,-0.0336 z m -19.31768,0.50075 c -0.0234,0.0219 -0.0502,0.0449 -0.0755,0.0677 l 0.0408,0.006 c 0.0111,-0.0238 0.0231,-0.0488 0.0346,-0.0729 z m -2.15956,0.0279 c -0.0142,0.012 -0.0281,0.0251 -0.0424,0.0367 l -5.2e-4,5.2e-4 c 1e-4,0.008 0.013,0.0183 0.0274,0.0248 0.005,-0.0205 0.01,-0.0413 0.0155,-0.0615 z m 8.9178,0.73071 c 7.8e-4,0.0103 0.002,0.0207 0.002,0.0315 0.01,-0.006 0.0192,-0.0105 0.0289,-0.016 -0.0103,-0.006 -0.0207,-0.01 -0.031,-0.0155 z m -14.77067,0.24908 c 9.1e-4,0.004 0.002,0.009 0.003,0.0124 0.021,0.0175 0.0416,0.0351 0.0625,0.0527 -0.0219,-0.022 -0.0438,-0.0433 -0.0656,-0.0651 z m 16.70802,0.16433 c 6.5e-4,0.003 0.001,0.005 0.002,0.008 0.001,-0.002 0.002,-0.006 0.003,-0.008 -0.002,-2e-5 -0.003,1e-5 -0.005,0 z m -14.42702,4.03955 c -8e-5,0.0128 -0.002,0.0265 -0.003,0.0393 0.0922,0.081 0.18267,0.16349 0.27181,0.24753 -0.0895,-0.0956 -0.1797,-0.19067 -0.26871,-0.2868 z m 11.13213,2.94194 c -0.0104,0.0186 -0.0253,0.0356 -0.0387,0.0522 0.0262,-0.0152 0.0515,-0.032 0.0765,-0.0491 -0.0127,-0.001 -0.0251,-0.002 -0.0377,-0.003 z m 2.1854,0.0615 c -0.0258,0.001 -0.0517,0.002 -0.0775,0.003 -0.009,0.0102 -0.0171,0.0204 -0.0258,0.0305 0.0344,-0.0111 0.0689,-0.022 0.10335,-0.0331 z" />
    <path
       id="path1577"
       style="opacity:1;fill:#f7eae2;fill-opacity:1;fill-rule:evenodd;stroke:#000000;stroke-width:0;stroke-dasharray:none;paint-order:markers stroke fill"
       d="m 137.22987,94.931673 a 19.724594,17.210691 0 0 0 -0.59635,0.08113 c 0.0394,-0.0034 0.0789,-0.0072 0.11834,-0.01033 0.13428,-0.01006 0.26858,-0.01659 0.40308,-0.02274 0.0234,-0.01635 0.0485,-0.03243 0.0749,-0.04806 z m -1.79214,0.299723 a 19.724594,17.210691 0 0 0 -3.19257,0.93276 c 0.0361,0.0019 0.0703,0.0076 0.10232,0.01654 7.1e-4,-2.87e-4 0.001,-0.001 0.002,-0.001 0.58652,-0.225312 1.18276,-0.422963 1.78543,-0.599963 0.37372,-0.111948 0.75745,-0.187441 1.14308,-0.244947 0.0442,-0.03797 0.0974,-0.07262 0.15968,-0.103353 z m -7.50704,3.162598 a 19.724594,17.210691 0 0 0 -0.82889,0.584977 c 0.15717,-0.106777 0.31546,-0.211601 0.47749,-0.311092 0.0882,-0.05228 0.17758,-0.102096 0.26769,-0.150895 0.0275,-0.04286 0.055,-0.08438 0.0837,-0.12299 z m 2.08411,0.136943 c -0.005,0.0037 -0.0107,0.0072 -0.016,0.01085 0.004,-3.11e-4 0.007,-2.38e-4 0.0109,-5.17e-4 0.002,-0.0035 0.003,-0.0069 0.005,-0.01034 z m -3.34553,0.774113 a 19.724594,17.210691 0 0 0 -0.0951,0.07183 c 0.002,-0.0011 0.004,-0.0025 0.007,-0.0036 0.018,-0.01157 0.0366,-0.0223 0.0548,-0.03359 0.0115,-0.01205 0.0251,-0.02618 0.0331,-0.03462 z m 7.95404,0.02894 c 4.9e-4,0.0018 0.001,0.0034 0.001,0.0052 0.002,-0.0015 0.003,-0.0032 0.005,-0.0047 -0.002,-1.1e-4 -0.004,-4.09e-4 -0.006,-5.17e-4 z m 20.81371,1.929602 c 0.0751,0.0981 0.14981,0.1968 0.2279,0.29249 0.23124,0.27886 0.44979,0.56861 0.66042,0.86351 0.1291,0.18392 0.25712,0.36855 0.38551,0.55294 0.0908,0.0612 0.18143,0.14898 0.26613,0.26768 0.18081,0.2534 0.30979,0.53578 0.43202,0.82062 0.0159,0.0367 0.0305,0.0739 0.045,0.11111 0.0288,0.0512 0.0588,0.10165 0.0873,0.15296 0.19429,0.33453 0.36693,0.68097 0.53485,1.02939 0.093,0.11126 0.1865,0.22559 0.29611,0.36277 a 19.724594,17.210691 0 0 0 -2.93523,-4.45347 z m -3.51968,0.60409 c -0.004,0.003 -0.007,0.006 -0.0114,0.008 0.0231,0.0667 0.0463,0.13928 0.0693,0.21342 8.7e-4,-1.2e-4 0.002,-4e-4 0.003,-5.2e-4 -0.0198,-0.0737 -0.0396,-0.1473 -0.0605,-0.22066 z m -27.93938,0.0997 a 19.724594,17.210691 0 0 0 -0.478,0.6289 c 0.1056,-0.11485 0.21315,-0.22775 0.32866,-0.33279 0.0458,-0.10042 0.096,-0.19903 0.14934,-0.29611 z m 8.40104,1.35392 c -0.023,0.0291 -0.0373,0.0592 -0.047,0.0889 0.0313,-0.0282 0.054,-0.0593 0.047,-0.0889 z m 4.88497,1.22473 c -0.0111,0.003 -0.0219,0.006 -0.0331,0.009 8e-4,0.003 0.002,0.005 0.003,0.008 0.002,0.006 0.003,0.0117 0.004,0.0176 0.007,-0.007 0.0162,-0.0153 0.0248,-0.0243 7.9e-4,-0.003 0.002,-0.007 0.003,-0.0103 z m 2.69079,0.2496 c -0.007,0.002 -0.0148,0.003 -0.0222,0.005 -0.004,0.0407 -0.008,0.0821 -0.0124,0.12247 0.004,-0.001 0.009,-0.002 0.0134,-0.004 0.007,-0.0412 0.0138,-0.0825 0.0212,-0.12351 z m -10.70942,0.0388 v 5.1e-4 c 0.0172,0.0118 0.0349,0.0224 0.0522,0.0341 0.007,-0.01 0.0134,-0.019 0.0202,-0.0284 -0.0239,-0.001 -0.0486,-0.005 -0.0724,-0.006 z m 8.9886,0.061 c -0.003,0.006 -0.005,0.0118 -0.009,0.0186 0.002,-2.6e-4 0.005,-2.5e-4 0.007,-5.2e-4 4.4e-4,-0.006 0.001,-0.0121 0.002,-0.0181 z m -2.28978,0.0119 c -0.0398,0.0105 -0.0657,0.0172 -0.10439,0.0274 0.0467,0.008 0.0933,0.0164 0.13953,0.0191 -0.0129,-0.0123 -0.0239,-0.0294 -0.0351,-0.0465 z m -10.03557,0.10439 c -0.0673,0.0784 -0.13288,0.15821 -0.19947,0.23719 0.0631,-0.0669 0.12612,-0.13402 0.18914,-0.20102 0.004,-0.012 0.007,-0.0242 0.0103,-0.0362 z m 10.5854,0.0661 c -0.009,0.0192 -0.0196,0.0382 -0.0294,0.0574 0.0241,2.5e-4 0.0477,0.003 0.0713,0.006 -0.0127,-0.0217 -0.0263,-0.0442 -0.0419,-0.0636 z m -14.69161,0.30696 a 19.724594,17.210691 0 0 0 -0.46353,1.05213 c 0.0248,-0.0247 0.0503,-0.0507 0.0754,-0.076 0.0143,-0.0271 0.0293,-0.0539 0.0434,-0.0811 0.0302,-0.0502 0.0614,-0.1001 0.0925,-0.14986 0.033,-0.1395 0.0705,-0.278 0.12093,-0.41342 0.0416,-0.11152 0.0856,-0.222 0.13125,-0.33176 z m 18.06557,0.67593 c -0.0194,0.006 -0.0413,0.0133 -0.0594,0.0191 0.0213,0.005 0.0428,0.0127 0.0646,0.0217 -0.002,-0.0138 -0.003,-0.0275 -0.005,-0.0408 z m 1.50482,0.0961 c -0.0408,0.0328 -0.0806,0.0669 -0.12093,0.10025 0.0381,-0.0188 0.0768,-0.0362 0.11628,-0.0522 0.001,-0.016 0.002,-0.0328 0.005,-0.0481 z m -2.52957,0.23564 c -0.007,0.002 -0.0144,0.005 -0.0212,0.007 0.0119,0.0117 0.0229,0.0218 0.0341,0.0336 6.3e-4,-3.1e-4 0.001,3.2e-4 0.002,0 -0.005,-0.0131 -0.01,-0.0263 -0.015,-0.0398 z m 19.89957,0.20412 c -0.004,0.0151 -0.008,0.0303 -0.0124,0.046 -0.0135,0.0454 -0.0359,0.0864 -0.0615,0.12557 0.0574,0.11674 0.11272,0.23457 0.16691,0.35295 0.11092,0.2313 0.19972,0.47092 0.28732,0.71158 0.0473,0.13889 0.0903,0.27907 0.13075,0.42013 a 19.724594,17.210691 0 0 0 -0.51108,-1.65623 z m -21.48086,0.28577 c -0.0448,0.0136 -0.0903,0.0276 -0.13178,0.0403 0.0103,0.004 0.0203,0.008 0.0305,0.0124 0.0339,-0.0181 0.0679,-0.0357 0.10129,-0.0527 z m 22.10717,1.8464 c 0.0102,0.0618 0.0187,0.12379 0.0258,0.18604 0.0167,0.042 0.0334,0.084 0.0501,0.12609 a 19.724594,17.210691 0 0 0 -0.076,-0.31213 z m -9.41751,0.39688 c -0.003,0.002 -0.006,0.004 -0.008,0.006 -0.0532,0.0547 -0.13773,0.27299 -0.0987,0.20619 0.0384,-0.0693 0.0728,-0.14065 0.10748,-0.21187 z m -0.47025,0.60978 c -0.002,0.005 -0.004,0.009 -0.007,0.0139 0.007,-6.8e-4 0.0147,-0.001 0.0212,-0.002 -0.005,-0.004 -0.008,-0.008 -0.0124,-0.0119 z m -1.84899,0.29662 c -0.002,-2.1e-4 -0.003,0.001 -0.005,0.001 -0.0153,0.005 -0.0298,0.0124 -0.045,0.0181 0.007,0.0268 0.0142,0.0534 0.0202,0.0806 0.0302,-0.009 0.0529,-0.0969 0.03,-0.0997 z m 3.97547,0.76585 c -0.008,0.0342 -0.0186,0.0676 -0.0341,0.10025 -0.01,0.0208 -0.0227,0.0386 -0.0367,0.0553 0.0153,0.0196 0.0292,0.0401 0.0419,0.061 0.006,-0.001 0.0114,-0.002 0.0171,-0.003 0.003,-0.0612 0.008,-0.12209 0.0109,-0.18345 3.7e-4,-0.01 0.001,-0.02 0.001,-0.03 z m -17.58859,2.05414 c -0.0359,0.0143 -0.10722,0.005 -0.10697,0.0434 1.4e-4,0.0229 0.004,0.0458 0.009,0.0687 0.0335,-0.0386 0.0537,-0.0617 0.0982,-0.11213 z m 1.50378,0.45785 c -4.2e-4,6.9e-4 -0.001,0.001 -0.001,0.002 0.007,0.001 0.0142,0.003 0.0212,0.004 -0.007,-0.002 -0.0121,-0.004 -0.0186,-0.006 z m -14.334,0.35347 c 0.003,0.0191 0.008,0.0373 0.0114,0.0563 0.001,-0.004 0.003,-0.008 0.005,-0.0124 -0.005,-0.0148 -0.0108,-0.0291 -0.016,-0.0439 z m 29.34807,2.40605 c -0.007,0.003 -0.019,0.0302 -0.032,0.0677 3.2e-4,3.8e-4 0.001,0.001 0.001,0.001 0.003,-0.004 0.005,-0.008 0.008,-0.0114 0.008,-0.0191 0.0155,-0.0382 0.0232,-0.0574 z m -19.32388,0.51883 -5.2e-4,5.2e-4 c -0.0231,0.0217 -0.0501,0.0435 -0.0749,0.0661 0.0138,0.002 0.0275,0.004 0.0413,0.007 0.0113,-0.0234 0.0231,-0.0477 0.0346,-0.0718 z m -2.16111,0.0279 c -0.0142,0.012 -0.0281,0.0251 -0.0424,0.0367 l -5.2e-4,5.1e-4 c 1e-4,0.008 0.013,0.0178 0.0274,0.0243 0.005,-0.0205 0.01,-0.0413 0.0155,-0.0615 z m 8.9178,0.72605 v 0.001 c 8.4e-4,0.0117 0.002,0.023 0.002,0.0346 0.0101,-0.006 0.0199,-0.0119 0.03,-0.0176 -0.0107,-0.006 -0.0214,-0.0123 -0.032,-0.0181 z m -14.77119,0.2527 c 9.5e-4,0.005 0.002,0.009 0.003,0.0134 0.0211,0.0176 0.0418,0.0355 0.0631,0.0532 -0.0221,-0.0222 -0.0442,-0.0444 -0.0662,-0.0667 z m 16.71061,0.1726 c 4.4e-4,0.002 0.001,0.004 0.001,0.006 l 0.003,-0.006 c -0.001,-2e-5 -0.003,1e-5 -0.004,0 z m -18.29552,0.35812 a 19.724594,17.210691 0 0 0 0.0139,0.0289 c -4.4e-4,-0.004 -0.001,-0.007 -0.001,-0.0109 -0.004,-0.006 -0.009,-0.012 -0.0129,-0.0181 z m 35.85465,1.84071 c -0.16579,0.17617 -0.32131,0.3613 -0.48162,0.5426 -0.007,0.007 -0.0131,0.0138 -0.0196,0.0207 -0.0521,0.12176 -0.10288,0.24429 -0.15348,0.36691 -0.0253,0.0615 -0.0516,0.12252 -0.0791,0.18293 a 19.724594,17.210691 0 0 0 0.7338,-1.11311 z m -34.81389,0.11989 a 19.724594,17.210691 0 0 0 0.14263,0.21394 c -0.0143,-0.032 -0.0262,-0.0633 -0.0357,-0.094 -0.036,-0.0397 -0.0723,-0.079 -0.10697,-0.11989 z m 0.34055,0.51108 a 19.724594,17.210691 0 0 0 0.58446,0.81029 c -0.0513,-0.0871 -0.0795,-0.1729 -0.0878,-0.2527 -0.16866,-0.18308 -0.33584,-0.36728 -0.49661,-0.55759 z m 0.67799,0.93999 a 19.724594,17.210691 0 0 0 0.0403,0.0486 c -0.003,-0.005 -0.006,-0.0103 -0.009,-0.0155 -0.0102,-0.011 -0.021,-0.022 -0.0305,-0.0331 z m 1.80816,0.26097 c -2e-5,0.0134 -0.002,0.0262 -0.003,0.0393 0.0916,0.0805 0.18166,0.16244 0.27027,0.24598 -0.089,-0.0951 -0.17864,-0.18966 -0.26717,-0.28525 z m 12.29744,2.04535 c -0.005,0.005 -0.0107,0.0103 -0.016,0.0155 0.003,2.7e-4 0.007,0.001 0.0103,0.001 0.002,-0.005 0.004,-0.0108 0.006,-0.0165 z m -11.04325,0.79427 a 19.724594,17.210691 0 0 0 0.69194,0.5364 c -0.049,-0.056 -0.0976,-0.11248 -0.14572,-0.1695 -0.0219,-0.0264 -0.0451,-0.0517 -0.0677,-0.0775 -0.0138,-0.009 -0.0276,-0.019 -0.0413,-0.0284 -0.0601,-0.0443 -0.11985,-0.0889 -0.17983,-0.13333 -0.0851,-0.0438 -0.17083,-0.0867 -0.25735,-0.12764 z m 9.87433,0.10697 c -0.01,0.0172 -0.0236,0.0316 -0.0362,0.047 0.0238,-0.0139 0.047,-0.0285 0.0698,-0.0439 z m 2.18798,0.062 c -0.027,0.001 -0.0541,0.002 -0.0811,0.003 -0.009,0.0107 -0.0187,0.0204 -0.0279,0.031 0.0363,-0.0117 0.0727,-0.0224 0.10904,-0.0341 z" />
    <path
       id="path7595"
       style="opacity:1;fill:#28170b;fill-rule:evenodd;stroke:#000000;stroke-width:3.8;stroke-dasharray:none;paint-order:markers stroke fill"
       d="m 136.95898,56.205078 c -14.32417,0.54301 -28.45465,6.229242 -38.944032,16.04067 -9.361419,8.652532 -15.756133,20.557291 -17.361504,33.237962 -0.44322,3.38313 -0.554407,6.81026 -0.338991,10.21551 -0.739238,-0.68173 -0.812879,-0.31095 -0.600293,0.51245 0.363508,1.14961 1.188936,2.12753 1.830762,3.14966 -0.08735,-0.81626 0.554216,0.50181 0.820312,0.71094 2.197862,2.72852 4.57432,5.54656 7.826172,7.0332 2.020041,0.94802 4.513362,0.7337 6.299181,-0.6233 2.710421,-2.00185 4.299473,-5.10815 5.697733,-8.09162 0.25577,-0.28985 0.34138,-1.36271 0.75309,-1.15813 1.2561,1.66587 1.97563,3.66975 3.11128,5.41727 1.18082,1.88853 2.72769,3.96297 5.07622,4.33664 2.27652,0.33233 4.31062,-1.22018 5.5179,-3.0148 2.34311,-3.46182 3.48019,-7.55047 4.70364,-11.5003 1.28165,-4.08123 2.2269,-8.32161 4.23263,-12.13017 0.63534,-1.274194 1.7021,-2.252398 2.94025,-2.929491 3.34062,-2.120554 7.44524,-3.050866 11.33588,-2.606993 2.78459,0.226412 5.52013,1.150571 7.66865,3.018007 2.64134,2.267687 4.77624,5.102537 6.49534,8.086697 1.83936,2.95222 3.36048,6.14546 5.68188,8.76455 0.79841,0.7949 1.94172,0.0676 2.60028,-0.551 0.98109,-0.77996 1.73848,-1.92943 2.94269,-2.37088 0.5726,0.2324 0.53006,1.08353 0.6553,1.61084 0.27268,2.249 -0.0398,4.46361 -0.0665,6.69401 0.25576,3.14806 2.31029,5.84597 4.62909,7.84629 1.87711,1.53575 4.21799,2.94711 6.73718,2.68089 1.70011,-0.18312 2.92948,-1.67551 3.27866,-3.27403 -6.63527,-27.0597 -2.65067,-20.82172 3.27408,-10.12831 0.27691,-0.95419 0.55451,-0.0372 0.71278,0.44613 0.8894,2.52518 1.82796,5.37877 4.24816,6.84684 1.20212,0.69306 2.80486,1.0918 4.03125,0.22851 2.47306,-1.61846 4.23376,-4.13034 5.5589,-6.72927 1.07163,-2.1478 1.68959,-4.60546 1.20629,-6.99958 -1.89042,-14.743476 -9.68464,-28.389573 -20.57309,-38.371714 -9.58242,-8.789194 -21.86017,-14.865705 -34.8716,-16.155583 -2.36126,-0.239752 -4.73733,-0.315044 -7.10957,-0.241895 z"
       sodipodi:nodetypes="ccccccccccccccccccccccccccccccccccccc" />
    <rect
       style="fill:#800000;fill-opacity:0.70922;stroke-width:0.264583"
       id="rect1"
       width="5.0278807"
       height="11.989562"
       x="99.397339"
       y="90.888618" />
    <rect
       style="fill:#800000;fill-opacity:0.70922;stroke-width:0.264583"
       id="rect1-8"
       width="5.0278807"
       height="11.989562"
       x="120.91458"
       y="82.550003" />
    <rect
       style="fill:#800000;fill-opacity:0.70922;stroke-width:0.264583"
       id="rect1-0"
       width="5.0278807"
       height="11.989562"
       x="120.91458"
       y="82.550003" />
    <rect
       style="fill:#800000;fill-opacity:0.70922;stroke-width:0.264583"
       id="rect1-9"
       width="5.0278807"
       height="11.989562"
       x="120.91458"
       y="82.550003" />
    <rect
       style="fill:#800000;fill-opacity:0.70922;stroke-width:0.264583"
       id="rect1-7"
       width="5.0278807"
       height="11.989562"
       x="120.91458"
       y="82.550003" />
    <rect
       style="fill:#800000;fill-opacity:0.70922;stroke-width:0.264583"
       id="rect1-1"
       width="5.0278807"
       height="11.989562"
       x="120.91458"
       y="82.550003" />
    <rect
       style="fill:#ff00ff;fill-opacity:0.70922;stroke-width:0.264583"
       id="rect1-89"
       width="5.0278807"
       height="11.989562"
       x="120.91458"
       y="82.550003" />
    <rect
       style="fill:#800000;fill-opacity:0.70922;stroke-width:0.264583"
       id="rect1-72"
       width="5.0278807"
       height="11.989562"
       x="190.53139"
       y="116.97165" />
    <rect
       style="fill:#ff00ff;fill-opacity:0.70922;stroke-width:0.264583"
       id="rect2"
       width="0.77351379"
       height="11.216042"
       x="167.4671"
       y="84.700455" />
    <rect
       style="fill:#ff00ff;fill-opacity:0.70922;stroke-width:0.264583"
       id="rect3"
       width="1.5470428"
       height="16.243919"
       x="134.5925"
       y="53.37289" />
    <rect
       style="fill:#ff00ff;fill-opacity:0.70922;stroke-width:0.264583"
       id="rect3-3"
       width="1.5470402"
       height="23.205605"
       x="145.52083"
       y="67.20417" />
    <rect
       style="fill:#ff00ff;fill-opacity:0.70922;stroke-width:0.264583"
       id="rect3-6"
       width="1.5470402"
       height="23.205605"
       x="145.52083"
       y="67.20417" />
    <rect
       style="fill:#ff00ff;fill-opacity:0.70922;stroke-width:0.264583"
       id="rect3-8"
       width="1.5470402"
       height="23.205605"
       x="145.52083"
       y="67.20417" />
    <rect
       style="fill:#ff00ff;fill-opacity:0.70922;stroke-width:0.264583"
       id="rect3-7"
       width="3.4808431"
       height="11.602802"
       x="179.16896"
       y="110.90806" />
    <rect
       style="fill:#ff00ff;fill-opacity:0.70922;stroke-width:0.264583"
       id="rect4"
       width="11.602802"
       height="2.7073205"
       x="181.39047"
       y="89.341568" />
    <rect
       style="fill:#ff00ff;fill-opacity:0.70922;stroke-width:0.264583"
       id="rect5"
       width="4.6411195"
       height="5.4146309"
       x="80.059334"
       y="107.90607" />
  </g>
</svg>
